<svg width="82" height="82" viewBox="0 0 82 82" fill="none" xmlns="http://www.w3.org/2000/svg">
<circle cx="41" cy="41" r="39" stroke="url(#paint0_linear_529_624)" stroke-opacity="0.6" stroke-width="4"/>
<path d="M37.5833 59.125C35.4292 59.125 33.5851 58.358 32.051 56.824C30.517 55.2899 29.75 53.4458 29.75 51.2917C29.75 49.1375 30.517 47.2934 32.051 45.7594C33.5851 44.2254 35.4292 43.4583 37.5833 43.4583C38.334 43.4583 39.0279 43.5484 39.665 43.7286C40.3022 43.9088 40.9138 44.1777 41.5 44.5354V27.7917C41.5 26.7146 41.8838 25.7922 42.6515 25.0245C43.4192 24.2569 44.3409 23.8737 45.4167 23.875H49.3333C50.4104 23.875 51.3328 24.2588 52.1005 25.0265C52.8681 25.7942 53.2513 26.7159 53.25 27.7917C53.25 28.8688 52.8662 29.7911 52.0985 30.5588C51.3308 31.3265 50.4091 31.7096 49.3333 31.7083H45.4167V51.2917C45.4167 53.4458 44.6497 55.2899 43.1156 56.824C41.5816 58.358 39.7375 59.125 37.5833 59.125Z" fill="url(#paint1_linear_529_624)" fill-opacity="0.6"/>
<defs>
<linearGradient id="paint0_linear_529_624" x1="1.92541" y1="41" x2="45.9332" y2="41.5778" gradientUnits="userSpaceOnUse">
<stop stop-color="#FF00A8"/>
<stop offset="1" stop-color="#BD00FF"/>
</linearGradient>
<linearGradient id="paint1_linear_529_624" x1="30.3018" y1="41.5" x2="42.915" y2="41.6104" gradientUnits="userSpaceOnUse">
<stop stop-color="#FF00A8"/>
<stop offset="1" stop-color="#BD00FF"/>
</linearGradient>
</defs>
</svg>
